<svg width="106.64pt" height="56.049pt" shape-rendering="geometricPrecision" version="1.1" viewBox="9.4554 14.402 106.64 56.049" xmlns="http://www.w3.org/2000/svg" xmlns:xlink="http://www.w3.org/1999/xlink"><defs><g id="c"><path d="m1.2812-1.5156 0.67188-1.2031h0.53125l-0.98438 1.6406v1.0781h-0.46875v-1.0781l-0.98438-1.6406h0.53125z"/></g><g id="k"><path d="m2.7188-1.375c0 0.21875-0.03125 0.41797-0.09375 0.59375-0.054688 0.16797-0.13672 0.32031-0.25 0.45312-0.10547 0.125-0.23438 0.22656-0.39062 0.29688-0.15625 0.0625-0.33594 0.09375-0.53125 0.09375-0.19922 0-0.375-0.03125-0.53125-0.09375-0.15625-0.070312-0.29297-0.17188-0.40625-0.29688-0.10547-0.13281-0.18359-0.28906-0.23438-0.46875-0.054688-0.17578-0.078125-0.36719-0.078125-0.57812 0-0.20703 0.023437-0.39844 0.078125-0.57812 0.050781-0.17578 0.12891-0.32812 0.23438-0.45312 0.11328-0.125 0.25-0.21875 0.40625-0.28125 0.15625-0.070312 0.33203-0.10938 0.53125-0.10938 0.19531 0 0.375 0.039063 0.53125 0.10938 0.15625 0.074219 0.28516 0.17188 0.39062 0.29688 0.11328 0.125 0.19531 0.27734 0.25 0.45312 0.0625 0.16797 0.09375 0.35547 0.09375 0.5625zm-0.46875 0c0-0.16406-0.023438-0.3125-0.0625-0.4375-0.042969-0.125-0.10156-0.22656-0.17188-0.3125-0.074219-0.09375-0.15625-0.16016-0.25-0.20312-0.09375-0.050781-0.19922-0.078125-0.3125-0.078125-0.11719 0-0.21875 0.027344-0.3125 0.078125-0.09375 0.042969-0.17969 0.10938-0.25 0.20312-0.074219 0.085938-0.13281 0.1875-0.17188 0.3125-0.042969 0.125-0.0625 0.27344-0.0625 0.4375 0 0.16797 0.019531 0.32031 0.0625 0.45312 0.039062 0.125 0.097656 0.23438 0.17188 0.32812 0.070313 0.085938 0.15625 0.15234 0.25 0.20312 0.09375 0.054687 0.19531 0.078125 0.3125 0.078125 0.11328 0 0.21875-0.023438 0.3125-0.078125 0.09375-0.050781 0.17578-0.11719 0.25-0.20312 0.070313-0.09375 0.12891-0.20312 0.17188-0.32812 0.039062-0.13281 0.0625-0.28516 0.0625-0.45312z"/></g><g id="b"><path d="m0.8125-2.7188v1.7969c0 0.09375 0.015625 0.18359 0.046875 0.26562 0.03125 0.074219 0.070313 0.13672 0.125 0.1875 0.050781 0.042969 0.10938 0.078125 0.17188 0.10938 0.070312 0.03125 0.14453 0.046875 0.21875 0.046875 0.070312 0 0.14453-0.007812 0.21875-0.03125 0.082031-0.03125 0.14844-0.070312 0.20312-0.125 0.0625-0.050781 0.10938-0.11328 0.14062-0.1875 0.039062-0.070312 0.0625-0.15625 0.0625-0.25v-1.8125h0.45312v1.7812c0 0.16797-0.03125 0.3125-0.09375 0.4375-0.054687 0.125-0.13281 0.23047-0.23438 0.3125-0.10547 0.085938-0.22656 0.14844-0.35938 0.1875-0.125 0.039062-0.25781 0.0625-0.39062 0.0625-0.13672 0-0.26562-0.023438-0.39062-0.0625s-0.23438-0.10156-0.32812-0.1875c-0.09375-0.082031-0.17188-0.1875-0.23438-0.3125-0.054687-0.125-0.078125-0.26953-0.078125-0.4375v-1.7812z"/></g><g id="h"><path d="m2.375-1.9219c0 0.11719-0.03125 0.22656-0.09375 0.32812-0.0625 0.10547-0.15625 0.19922-0.28125 0.28125 0.0625 0.023438 0.11328 0.054688 0.15625 0.09375 0.039062 0.03125 0.078125 0.074219 0.10938 0.125 0.03125 0.054688 0.050781 0.10547 0.0625 0.15625 0.007813 0.054688 0.015625 0.10547 0.015625 0.15625v0.40625c0 0.042969 0.007812 0.10156 0.03125 0.17188 0.03125 0.0625 0.066406 0.13281 0.10938 0.20312h-0.51562c-0.011719-0.03125-0.027344-0.0625-0.046875-0.09375-0.011719-0.039062-0.023437-0.078125-0.03125-0.10938v-0.078125-0.078125-0.42188c0-0.039062-0.011719-0.082031-0.03125-0.125-0.011719-0.039062-0.03125-0.078125-0.0625-0.10938s-0.074219-0.054687-0.125-0.078125c-0.042969-0.019531-0.10156-0.03125-0.17188-0.03125h-0.6875v1.125h-0.46875v-2.7188h1.1562c0.14453 0 0.26953 0.027344 0.375 0.078125 0.11328 0.042969 0.20703 0.10156 0.28125 0.17188 0.070312 0.074219 0.125 0.15625 0.15625 0.25 0.039062 0.09375 0.0625 0.19531 0.0625 0.29688zm-1.5625 0.42188h0.6875c0.050781 0 0.10156-0.007812 0.15625-0.03125 0.050781-0.019531 0.09375-0.046875 0.125-0.078125 0.039062-0.039063 0.070312-0.085937 0.09375-0.14062 0.03125-0.050781 0.046875-0.10938 0.046875-0.17188 0-0.050781-0.011719-0.10156-0.03125-0.15625-0.023437-0.050781-0.054687-0.09375-0.09375-0.125-0.03125-0.039063-0.074219-0.070313-0.125-0.09375-0.054687-0.03125-0.10938-0.046875-0.17188-0.046875h-0.6875z"/></g><g id="g"><path d="m0.34375-2.7188h1.0625c0.1875 0 0.35156 0.039062 0.5 0.10938 0.14453 0.0625 0.26953 0.15625 0.375 0.28125 0.11328 0.125 0.19531 0.27344 0.25 0.4375 0.050781 0.15625 0.078125 0.32812 0.078125 0.51562 0 0.19922-0.03125 0.38281-0.09375 0.54688-0.054687 0.16797-0.13281 0.3125-0.23438 0.4375-0.10547 0.125-0.23438 0.22656-0.39062 0.29688-0.14844 0.0625-0.30859 0.09375-0.48438 0.09375h-1.0625zm0.46875 2.3281h0.48438c0.125 0 0.23828-0.019531 0.34375-0.0625 0.10156-0.039063 0.19141-0.10156 0.26562-0.1875 0.082031-0.082031 0.14453-0.17969 0.1875-0.29688 0.039062-0.125 0.0625-0.26562 0.0625-0.42188 0-0.16406-0.027344-0.3125-0.078125-0.4375-0.042969-0.125-0.10156-0.22266-0.17188-0.29688-0.074219-0.082031-0.16406-0.14453-0.26562-0.1875-0.10547-0.039062-0.21875-0.0625-0.34375-0.0625h-0.48438z"/></g><g id="a"><path d="m1.7031-2.7188 1 2.7188h-0.48438l-0.29688-0.79688h-0.98438c-0.042969 0.13672-0.089844 0.27344-0.14062 0.40625-0.054687 0.125-0.10156 0.25781-0.14062 0.39062h-0.48438l1-2.7188zm-0.26562 0.5625-0.35938 0.96875h0.70312z"/></g><g id="f"><path d="m0.8125-2.7188v2.7188h-0.46875v-2.7188z"/></g><g id="e"><path d="m0.8125-2.7188v2.3281h1.2969v0.39062h-1.7656v-2.7188z"/></g><g id="d"><path d="m0.34375-2.7188h1.0781c0.14453 0 0.26953 0.027344 0.375 0.078125 0.10156 0.042969 0.19141 0.10547 0.26562 0.1875 0.070312 0.074219 0.12891 0.15625 0.17188 0.25 0.039063 0.09375 0.0625 0.19531 0.0625 0.29688 0 0.09375-0.023437 0.19531-0.0625 0.29688-0.042969 0.09375-0.10156 0.18359-0.17188 0.26562-0.074219 0.074219-0.16797 0.13672-0.28125 0.1875-0.10547 0.042969-0.22656 0.0625-0.35938 0.0625h-0.60938v1.0938h-0.46875zm0.46875 1.2344h0.51562c0.09375 0 0.17188-0.007813 0.23438-0.03125 0.0625-0.019531 0.11328-0.050781 0.15625-0.09375 0.039062-0.039063 0.066406-0.085937 0.078125-0.14062 0.019531-0.050781 0.03125-0.10938 0.03125-0.17188s-0.011719-0.11328-0.03125-0.15625c-0.023437-0.050781-0.054687-0.097656-0.09375-0.14062-0.042969-0.039062-0.09375-0.070312-0.15625-0.09375-0.0625-0.019531-0.13672-0.03125-0.21875-0.03125h-0.51562z"/></g><g id="j"><path d="m0.64062-0.95312c0.007813 0.09375 0.03125 0.18359 0.0625 0.26562 0.03125 0.074219 0.070313 0.14062 0.125 0.20312 0.050781 0.054687 0.10938 0.09375 0.17188 0.125 0.070312 0.023437 0.14844 0.03125 0.23438 0.03125 0.070313 0 0.14453-0.003906 0.21875-0.015625 0.070313-0.019531 0.13281-0.046875 0.1875-0.078125 0.050781-0.03125 0.09375-0.070313 0.125-0.125 0.03125-0.0625 0.046875-0.13281 0.046875-0.21875 0-0.070313-0.027344-0.13281-0.078125-0.1875-0.042969-0.050781-0.10156-0.09375-0.17188-0.125-0.074219-0.039063-0.15625-0.078125-0.25-0.10938s-0.19531-0.0625-0.29688-0.09375c-0.09375-0.03125-0.1875-0.066406-0.28125-0.10938-0.09375-0.039063-0.17969-0.085937-0.25-0.14062-0.074219-0.0625-0.13281-0.13281-0.17188-0.21875-0.042969-0.082031-0.0625-0.1875-0.0625-0.3125 0-0.11328 0.019531-0.21875 0.0625-0.3125 0.050781-0.09375 0.11719-0.17188 0.20312-0.23438 0.082031-0.0625 0.17969-0.10938 0.29688-0.14062 0.125-0.03125 0.25391-0.046875 0.39062-0.046875 0.1875 0 0.34375 0.03125 0.46875 0.09375 0.125 0.054687 0.22266 0.12109 0.29688 0.20312 0.082031 0.085938 0.14062 0.18359 0.17188 0.29688 0.03125 0.10547 0.050781 0.20312 0.0625 0.29688h-0.46875c-0.011719-0.082031-0.03125-0.15625-0.0625-0.21875s-0.074219-0.11328-0.125-0.15625c-0.042969-0.039062-0.09375-0.070312-0.15625-0.09375-0.054687-0.019531-0.11719-0.03125-0.1875-0.03125-0.0625 0-0.125 0.007812-0.1875 0.015625-0.054687 0.011719-0.10547 0.03125-0.15625 0.0625-0.042969 0.03125-0.078125 0.070313-0.10938 0.10938-0.03125 0.042969-0.046875 0.09375-0.046875 0.15625 0 0.085938 0.019531 0.15234 0.0625 0.20312 0.050781 0.054687 0.11328 0.10156 0.1875 0.14062 0.070313 0.03125 0.15625 0.0625 0.25 0.09375s0.1875 0.0625 0.28125 0.09375c0.10156 0.03125 0.20312 0.070312 0.29688 0.10938 0.09375 0.042969 0.17578 0.09375 0.25 0.15625 0.070312 0.054687 0.12891 0.12109 0.17188 0.20312 0.039063 0.085938 0.0625 0.18359 0.0625 0.29688 0 0.13672-0.027344 0.25781-0.078125 0.35938-0.054688 0.10547-0.125 0.19531-0.21875 0.26562-0.085938 0.074219-0.1875 0.125-0.3125 0.15625s-0.26562 0.046875-0.42188 0.046875c-0.13672 0-0.26562-0.023438-0.39062-0.0625-0.125-0.050781-0.24219-0.11719-0.34375-0.20312-0.09375-0.09375-0.17188-0.20312-0.23438-0.32812s-0.09375-0.26562-0.09375-0.42188z"/></g><g id="i"><path d="m2.2656-2.7188v0.375h-1.4531v0.75h1.3594v0.39062h-1.3594v0.8125h1.5156v0.39062h-1.9844v-2.7188z"/></g></defs><path id="l" d="m24.578 15.262c0 9.2852-0.089844 8.5508-0.16406 17.836-0.070312 8.6992-0.15625 18.652-0.26172 29.859-0.019532 2.1133-0.066406 4.2305-0.0625 6.3477 0.77734-0.085938 1.5508-0.17188 2.3281-0.25781-0.03125-4.8516-1.1016-10.922-3.6719-15.078-1.625-2.6289-4.043-5.3008-7.1211-6.1758-2.1367-0.60547-4.8164-0.003907-5.9102 2.1016-0.64062 1.2305-0.019532 2.2891 1.0391 3 1.582 1.0625 3.6367 1.4922 5.4688 1.8594 2.7188 0.54297 5.4844 0.85156 8.2422 1.0898 6.3125 0.54688 12.66 0.69141 18.992 0.71484 3.7969 0.015625 2.0273-0.011719 5.8242-0.12891 0.46875-0.015626 1.3164-0.13672 1.5234-0.65625 0.18359-0.46484-0.16016-0.78516-0.65234-0.76953-8.3242 0.26172-11.121 0.21875-19.441-0.21875-5.0664-0.26562-10.336-0.51953-15.25-1.8867-1.1719-0.32422-2.8555-0.76563-3.5156-1.8125-0.44531-0.70313 0.17578-1.9062 1.0352-2.0859 0.91406-0.19141 2.2305 0.47656 3.0703 1.0078 1.5 0.95313 2.7422 2.3008 3.7734 3.7344 2.9648 4.1133 4.2344 10.543 4.2656 15.562 0.007812 1.0391 2.332 0.58203 2.3281-0.25781-0.015625-5.8672 0.11328-12.992 0.16406-18.855 0.097657-10.898 0.19141-10.523 0.26172-21.418 0.03125-4.5898 0.0625-9.1797 0.0625-13.77 0-1.0391-2.3281-0.58594-2.3281 0.25781" fill="#5c212b"/><path id="m" d="m54.102 52.719c0-0.57422 0.17969-1.2617 0.53906-2.0508 0.35938-0.79297 0.81641-1.5586 1.3672-2.3047 0.55469-0.74609 1.1758-1.3789 1.875-1.9102 0.69531-0.52734 1.3555-0.78906 1.9766-0.78906 0.52734 0 0.94922 0.16797 1.2617 0.50391 0.3125 0.33594 0.46875 0.78906 0.46875 1.3672 0 0.28906-0.0625 0.53906-0.17969 0.75391-0.12109 0.21875-0.30078 0.32422-0.54297 0.32422-0.28906 0-0.52734-0.28516-0.71875-0.86328-0.097657-0.33594-0.22656-0.51562-0.39453-0.53906-0.16797-0.023438-0.46875 0.10937-0.90234 0.39453-0.67187 0.48047-1.332 1.2266-1.9805 2.2344-0.64453 1.0078-1.0156 1.8711-1.1133 2.5898-0.14453 1.5391 0.69531 2.3047 2.5195 2.3047 1.4414 0 3.3594-0.52734 5.7578-1.582 2.4023-1.0586 4.9453-2.5938 7.6328-4.6094 1.1055-0.76562 1.8008-1.1523 2.0898-1.1523 0.09375 0 0.23828 0.097656 0.42969 0.28906 0.43359 0.625-1.1016 2.0391-4.6094 4.2461-2.2539 1.3945-4.3516 2.4609-6.2969 3.2031-1.9453 0.74609-3.6133 1.1172-5.0039 1.1172-1.1055 0-2.0742-0.27344-2.918-0.82812-0.83594-0.55078-1.2578-1.4492-1.2578-2.6992" fill="#5c212b"/><path id="n" d="m71.887 54.879c0.33594-0.23828 0.82812-0.69531 1.4766-1.3672 0.64453-0.67188 1.2812-1.4062 1.9062-2.1953 0.625-0.79297 1.1992-1.5742 1.7266-2.3398 0.52734-0.76953 0.86719-1.3711 1.0078-1.8008 0.097656-0.14453-0.023437-0.21875-0.35938-0.21875-0.48047 0-1.0078 0.12109-1.582 0.36328-0.43359 0.23828-1.0703 0.73047-1.9102 1.4727-0.83984 0.74609-1.5 1.4531-1.9805 2.125-0.57422 0.81641-1.0195 1.6445-1.332 2.4844-0.30859 0.83984-0.39453 1.4531-0.25 1.8359 0.097656 0.24219 0.52734 0.12109 1.2969-0.35938m-1.9453 1.9453c-0.57812-0.28906-0.89844-0.79297-0.97266-1.5117-0.070312-0.72266 0.0625-1.5391 0.39453-2.4492 0.33984-0.91406 0.86719-1.8711 1.5859-2.8789s1.582-1.9453 2.5938-2.8086c0.71875-0.625 1.3398-1.0547 1.8711-1.2969 0.52734-0.23828 1.125-0.38281 1.8008-0.43359 0.42969-0.046874 0.75391-0.046874 0.96875 0 0.21875 0.050782 0.49219 0.14453 0.82812 0.28906 0.33594 0.14453 0.60156 0.28906 0.79297 0.43359 0.19141 0.14453 0.40625 0.40625 0.64844 0.78906 0.625 0.96094 0.81641 1.7305 0.57812 2.3047-0.24219 0.48047-0.53125 0.55469-0.86719 0.21875-0.09375-0.097657-0.16797-0.13281-0.21484-0.10938-0.046875 0.023437-0.070313 0.20312-0.070313 0.53906 0 1.1055 0.33203 1.9688 1.0078 2.5938 0.67188 0.62109 1.5352 0.93359 2.5898 0.93359 1.0547 0 2.1133-0.15625 3.168-0.46484 1.0547-0.3125 2.0898-0.72266 3.0977-1.2266 1.0078-0.50391 1.9922-1.0781 2.9531-1.7266 0.95703-0.64844 1.8203-1.2852 2.5898-1.9102 0.96094-0.71875 1.5352-0.83594 1.7266-0.35938 0.19141 0.38672 0.011719 0.83984-0.53906 1.3672-0.55078 0.53125-1.5938 1.2969-3.1328 2.3047-1.8242 1.1523-3.5859 2.0547-5.2891 2.6992-1.707 0.64844-3.1836 0.97266-4.4297 0.97266-2.9297 0-4.6797-1.4141-5.2578-4.2461l-0.14062-0.86328-1.0078 1.3672c-2.6406 3.7422-4.8008 5.6172-6.4805 5.6172-0.38281 0-0.64844-0.050781-0.79297-0.14453" fill="#5c212b"/><path id="o" d="m88.562 62.305c0.054688-0.69531 0.019531-1.4023-0.10156-2.1094-0.125-0.71094-0.25-1.1523-0.38281-1.3203 0.003906 0.73438 0.011719 1.3711 0.023437 1.9062 0.015626 0.53906 0.019532 1.1133 0.023438 1.7227 0.003906 0.61328 0.035156 1.1836 0.09375 1.707l0.03125 0.51172 0.11328-0.53906c0.0625-0.16016 0.10938-0.41406 0.13672-0.76562 0.027344-0.34766 0.046875-0.71875 0.0625-1.1133m-0.65234-8.1719 0.011719 2.2031 0.53906 0.47656c0.73047 0.68359 1.2266 1.6094 1.4922 2.7812s0.28906 2.6562 0.074219 4.4688c-0.11719 0.85547-0.28125 1.7227-0.49219 2.6016-0.21484 0.875-0.40234 1.5-0.57031 1.8789-0.0625 0.16016-0.125 0.34375-0.17969 0.55078-0.054687 0.20703-0.11719 0.39062-0.17969 0.55469-0.10938 0.41406-0.27734 0.66797-0.50781 0.76172-0.22266 0.097656-0.46094 0.023438-0.70312-0.21875-0.18359-0.16016-0.31641-0.57422-0.40234-1.2422-0.082032-0.86719-0.17578-2.0938-0.28516-3.6914-0.10547-1.5938-0.20312-3.1914-0.28516-4.7891-0.003906-0.73438-0.027344-1.3203-0.066406-1.7539-0.039063-0.43359-0.070313-0.75781-0.09375-0.97266-0.015625-0.21484-0.042969-0.34375-0.078125-0.38672-0.03125-0.042969-0.078125-0.082031-0.13281-0.12109-0.83984-0.26562-1.293-0.6875-1.3633-1.2617-0.070312-0.57422 0.28516-1.2344 1.0625-1.9844 0.28125-0.30078 0.44531-0.50781 0.49609-0.61719 0.050781-0.10938 0.082031-0.38281 0.085937-0.82812-0.011719-0.53516 0-1.4297 0.035157-2.6875 0.035156-1.2578 0.097656-2.6914 0.17969-4.3008 0.085937-1.6094 0.20703-3.2891 0.36328-5.0352 0.15234-1.75 0.35938-3.3594 0.62109-4.832 0.25781-1.4766 0.58203-2.707 0.96875-3.6914 0.38281-0.98438 0.83594-1.5352 1.3516-1.6406 0.42578-0.085938 0.82813 0.097656 1.2188 0.55859 0.19922 0.25391 0.375 0.69531 0.52734 1.3242 0.15625 0.62891 0.27344 1.3789 0.35156 2.2422 0.082031 0.86719 0.12891 1.8125 0.14453 2.8398 0.015625 1.0234-0.015625 2.0586-0.09375 3.1055-0.14453 1.4531-0.37891 2.2109-0.70703 2.2773-0.14062 0.03125-0.28516-0.0625-0.42578-0.28125-0.14453-0.21484-0.24609-0.58594-0.30469-1.1133s-0.074219-1.5508-0.042969-3.0781c0.039063-0.98828 0.019531-2.0469-0.070312-3.1836-0.085938-1.1328-0.17188-1.9102-0.25781-2.3359-0.085937-0.42188-0.27344-0.13672-0.5625 0.85156-0.28516 0.99219-0.53906 2.2656-0.75391 3.832-0.10547 0.90234-0.23047 2.0312-0.37109 3.3828-0.13672 1.3516-0.24609 2.7227-0.32812 4.1133-0.082031 1.3867-0.14453 2.6875-0.19141 3.8945-0.042969 1.2109-0.054687 2.1094-0.03125 2.6914l-0.027344 0.59375" fill="#5c212b"/><path id="p" d="m98.902 47.66c0.33594-0.52734 0.50391-1.0547 0.50391-1.582s-0.19141-0.79297-0.57422-0.79297c-0.14453 0-0.39453 0.16797-0.75781 0.50391-0.35547 0.33594-0.63672 0.67188-0.82812 1.0078-0.23828 0.38672-0.28516 0.69531-0.14062 0.93359 0.14062 0.28906 0.26172 0.49609 0.35938 0.61328 0.09375 0.12109 0.26172 0.15625 0.50391 0.10938 0.28906 0 0.59766-0.26562 0.93359-0.79297m-0.86328 7.7773c-2.6367-0.57812-3.7656-2.4219-3.3828-5.5469 0.24219-1.7734 0.76953-3.2383 1.582-4.3906 0.81641-1.1523 1.7031-1.7266 2.6641-1.7266 0.52734 0 0.98438 0.19141 1.3711 0.57422 0.62109 0.625 0.86328 1.4414 0.71875 2.4492-0.14453 1.0078-0.625 1.8711-1.4414 2.5938-0.76562 0.67188-1.5586 0.86328-2.375 0.57422-0.48047-0.19141-0.74609-0.28906-0.79297-0.28906-0.046874 0-0.070312 0.43359-0.070312 1.2969 0 1.3438 0.26172 2.1602 0.79297 2.4492 0.52734 0.28516 1.3672 0.42969 2.5195 0.42969 1.0547 0 2.1953-0.19141 3.418-0.57422 1.2266-0.38281 2.4375-0.875 3.6367-1.4766 1.1992-0.60156 2.3516-1.2461 3.457-1.9453 1.1016-0.69531 2.0625-1.332 2.8789-1.9062 0.57812-0.43359 1.0898-0.80469 1.5469-1.1172s0.82812-0.46875 1.1172-0.46875c0.097656 0 0.19141 0.050781 0.28906 0.14453 0.23828 0.24219 0.12891 0.61328-0.32422 1.1172-0.45703 0.50391-1.0938 1.0664-1.9102 1.6914-0.33594 0.28906-0.76562 0.60156-1.293 0.9375-0.53125 0.33594-1.082 0.68359-1.6562 1.043-0.57812 0.35938-1.1406 0.69531-1.6914 1.0078-0.55469 0.3125-1.043 0.58984-1.4766 0.82812-1.875 0.96094-3.6875 1.6445-5.4375 2.0508-1.7539 0.41016-3.1289 0.49609-4.1406 0.25391" fill="#5c212b"/><g id="q" fill="#5c212b"><use x="31.583" y="69.2259" xlink:href="#c"/><use x="34.915" y="69.2259" xlink:href="#k"/><use x="38.627" y="69.2259" xlink:href="#b"/><use x="42.231" y="69.2259" xlink:href="#h"/><use x="45.735" y="69.2259" xlink:href="#glyph-0-4"/><use x="47.447" y="69.2259" xlink:href="#g"/><use x="51.055" y="69.2259" xlink:href="#a"/><use x="54.727" y="69.2259" xlink:href="#f"/><use x="56.679" y="69.2259" xlink:href="#e"/><use x="59.743" y="69.2259" xlink:href="#c"/><use x="63.075" y="69.2259" xlink:href="#glyph-0-4"/><use x="64.787" y="69.2259" xlink:href="#d"/><use x="68.063" y="69.2259" xlink:href="#a"/><use x="71.735" y="69.2259" xlink:href="#b"/><use x="75.339" y="69.2259" xlink:href="#j"/><use x="78.579" y="69.2259" xlink:href="#i"/></g></svg>
